<svg width="35" height="19" viewBox="0 0 35 19" fill="none" xmlns="http://www.w3.org/2000/svg">
<path fill-rule="evenodd" clip-rule="evenodd" d="M16.8827 10.6477H4.64997V18.009H0.265663V7.12942C0.265663 6.47989 0.37392 5.72211 0.644556 4.9102C1.1317 3.44877 2.05186 2.36622 3.40505 1.60844C4.97474 0.742405 7.57284 0.309387 11.1452 0.309387C18.7772 0.309387 26.4091 0.309387 34.0411 0.309387V3.28639H27.4376V18.009H23.3239V3.28639C19.1019 3.28639 15.0965 3.23226 10.8746 3.23226C9.25079 3.23226 8.11412 3.34051 7.46459 3.5029C6.32792 3.77353 5.57014 4.42306 5.08299 5.34322C4.7041 6.04688 4.54172 6.80466 4.54172 7.67069H16.8827V10.6477Z" fill="#F95A59"/>
</svg>
