<svg width="21" height="20" viewBox="0 0 21 20" fill="none" xmlns="http://www.w3.org/2000/svg">
<path fill-rule="evenodd" clip-rule="evenodd" d="M20.8326 19.1173H15.8529L15.1493 18.1971C14.175 18.576 13.3089 18.8466 12.5512 19.0631C11.7934 19.2255 10.9815 19.3338 10.0613 19.3338C7.03018 19.3338 4.64858 18.576 2.97063 17.1145C1.18443 15.599 0.318398 13.2715 0.318398 10.2945C0.318398 7.26338 1.13031 4.93591 2.7 3.36622C4.32382 1.79653 6.75954 0.984619 10.0613 0.984619C13.2548 0.984619 15.6905 1.85066 17.3685 3.5286C18.8299 4.99004 19.5336 6.88449 19.5336 9.15784C19.5336 10.8358 19.4794 12.0807 19.3171 12.8385C19.1006 14.0293 18.5593 15.166 17.8015 16.1944L20.8326 19.1173ZM15.1493 10.1321C15.1493 8.50831 14.8245 7.20926 14.1208 6.18084C13.2548 4.88178 11.8475 4.23226 10.0072 4.23226C8.2751 4.23226 6.92192 4.7194 6.05589 5.74782C5.18985 6.72211 4.75683 8.18355 4.75683 10.078C4.75683 12.189 5.24398 13.7587 6.2724 14.7329C7.19256 15.599 8.54574 16.032 10.3319 16.032C11.9558 16.032 13.1466 15.5449 13.9585 14.5706C14.7704 13.5421 15.1493 12.0807 15.1493 10.1321Z" fill="#F95A59"/>
</svg>
