<svg width="21" height="19" viewBox="0 0 21 19" fill="none" xmlns="http://www.w3.org/2000/svg">
<path fill-rule="evenodd" clip-rule="evenodd" d="M20.0752 9.13214C20.0752 12.5963 19.1009 15.032 17.2065 16.5476C15.6368 17.7384 13.3635 18.3338 10.4406 18.3338C7.13882 18.3338 4.70309 17.6301 3.1334 16.2769C1.40133 14.7614 0.535294 12.3256 0.535294 8.96976C0.535294 6.20926 1.29307 4.04417 2.86276 2.52861C4.54071 0.850666 7.03056 0.0387573 10.3865 0.0387573C14.0671 0.0387573 16.6111 0.850666 18.1267 2.42036C19.4257 3.82767 20.0752 6.04688 20.0752 9.13214ZM15.5285 9.02388C15.5285 7.29181 15.0955 5.8845 14.2836 4.85608C13.3635 3.71941 11.9561 3.12401 10.1699 3.12401C8.38374 3.12401 7.03056 3.71941 6.1104 4.96434C5.35262 5.99276 4.97373 7.34594 4.97373 8.96976C4.97373 10.8642 5.29849 12.2715 5.89389 13.1917C6.75993 14.4366 8.27549 15.0861 10.603 15.0861C12.5515 15.0861 13.9047 14.4907 14.6625 13.2458C15.2579 12.3798 15.5285 10.9183 15.5285 9.02388Z" fill="#F95A59"/>
</svg>
