<svg width="20" height="19" viewBox="0 0 20 19" fill="none" xmlns="http://www.w3.org/2000/svg">
<path fill-rule="evenodd" clip-rule="evenodd" d="M19.6152 12.5421C19.6152 14.1118 19.0739 15.4109 18.0455 16.4934C17.0171 17.576 15.718 18.0631 14.0942 18.0631H1.64495V14.8696H11.9833C12.6869 14.8696 13.2823 14.7072 13.7153 14.3825C14.2566 14.0036 14.5272 13.5164 14.5272 12.8669C14.5272 11.3513 13.4447 10.5936 11.3337 10.5936H6.13751C4.62195 10.5936 3.32289 10.1064 2.18622 9.18626C1.04955 8.26609 0.508274 7.07529 0.508274 5.61386C0.508274 4.04417 1.04955 2.74511 2.18622 1.77082C3.26877 0.796533 4.7302 0.309387 6.57053 0.309387H18.5327V3.34051H7.92371C7.43656 3.34051 6.94942 3.55702 6.5164 3.93591C5.97513 4.3148 5.75862 4.80195 5.75862 5.34322C5.75862 5.93862 5.97513 6.47989 6.46227 6.85878C6.94942 7.2918 7.49069 7.45418 8.14022 7.45418H13.8777C15.6639 7.45418 17.0712 7.94133 18.0996 8.86149C19.1281 9.78166 19.6152 11.0266 19.6152 12.5421Z" fill="#F95A59"/>
</svg>
